<svg width="180" height="180" viewBox="0 0 180 180" fill="none" xmlns="http://www.w3.org/2000/svg">
<rect width="180" height="180" fill="black"/>
<path d="M28.2163 76.1C28.7696 76.1 29.2563 76.0267 29.6763 75.88C30.1029 75.7333 30.4596 75.53 30.7463 75.27C31.0396 75.0033 31.2596 74.6867 31.4063 74.32C31.5529 73.9533 31.6263 73.55 31.6263 73.11C31.6263 72.1967 31.3429 71.4833 30.7763 70.97C30.2163 70.4567 29.3629 70.2 28.2163 70.2H25.9163V76.1H28.2163ZM28.2163 68.67C29.1229 68.67 29.9096 68.7767 30.5763 68.99C31.2496 69.1967 31.8063 69.4933 32.2463 69.88C32.6863 70.2667 33.0129 70.7333 33.2263 71.28C33.4463 71.8267 33.5563 72.4367 33.5563 73.11C33.5563 73.7767 33.4396 74.3867 33.2063 74.94C32.9729 75.4933 32.6296 75.97 32.1763 76.37C31.7296 76.77 31.1729 77.0833 30.5063 77.31C29.8463 77.53 29.0829 77.64 28.2163 77.64H25.9163V83H23.9863V68.67H28.2163ZM39.3594 68.27V83H37.5794V68.27H39.3594ZM51.0259 76.83C51.0259 76.4167 50.9659 76.04 50.8459 75.7C50.7326 75.3533 50.5626 75.0567 50.3359 74.81C50.1159 74.5567 49.8459 74.3633 49.5259 74.23C49.2059 74.09 48.8426 74.02 48.4359 74.02C47.5826 74.02 46.9059 74.27 46.4059 74.77C45.9126 75.2633 45.6059 75.95 45.4859 76.83H51.0259ZM52.4659 81.58C52.2459 81.8467 51.9826 82.08 51.6759 82.28C51.3693 82.4733 51.0393 82.6333 50.6859 82.76C50.3393 82.8867 49.9793 82.98 49.6059 83.04C49.2326 83.1067 48.8626 83.14 48.4959 83.14C47.7959 83.14 47.1493 83.0233 46.5559 82.79C45.9693 82.55 45.4593 82.2033 45.0259 81.75C44.5993 81.29 44.2659 80.7233 44.0259 80.05C43.7859 79.3767 43.6659 78.6033 43.6659 77.73C43.6659 77.0233 43.7726 76.3633 43.9859 75.75C44.2059 75.1367 44.5193 74.6067 44.9259 74.16C45.3326 73.7067 45.8293 73.3533 46.4159 73.1C47.0026 72.84 47.6626 72.71 48.3959 72.71C49.0026 72.71 49.5626 72.8133 50.0759 73.02C50.5959 73.22 51.0426 73.5133 51.4159 73.9C51.7959 74.28 52.0926 74.7533 52.3059 75.32C52.5193 75.88 52.6259 76.52 52.6259 77.24C52.6259 77.52 52.5959 77.7067 52.5359 77.8C52.4759 77.8933 52.3626 77.94 52.1959 77.94H45.4259C45.4459 78.58 45.5326 79.1367 45.6859 79.61C45.8459 80.0833 46.0659 80.48 46.3459 80.8C46.6259 81.1133 46.9593 81.35 47.3459 81.51C47.7326 81.6633 48.1659 81.74 48.6459 81.74C49.0926 81.74 49.4759 81.69 49.7959 81.59C50.1226 81.4833 50.4026 81.37 50.6359 81.25C50.8693 81.13 51.0626 81.02 51.2159 80.92C51.3759 80.8133 51.5126 80.76 51.6259 80.76C51.7726 80.76 51.8859 80.8167 51.9659 80.93L52.4659 81.58ZM62.3024 78.44C61.4824 78.4667 60.7824 78.5333 60.2024 78.64C59.629 78.74 59.159 78.8733 58.7924 79.04C58.4324 79.2067 58.169 79.4033 58.0024 79.63C57.8424 79.8567 57.7624 80.11 57.7624 80.39C57.7624 80.6567 57.8057 80.8867 57.8924 81.08C57.979 81.2733 58.0957 81.4333 58.2424 81.56C58.3957 81.68 58.5724 81.77 58.7724 81.83C58.979 81.8833 59.199 81.91 59.4324 81.91C59.7457 81.91 60.0324 81.88 60.2924 81.82C60.5524 81.7533 60.7957 81.66 61.0224 81.54C61.2557 81.42 61.4757 81.2767 61.6824 81.11C61.8957 80.9433 62.1024 80.7533 62.3024 80.54V78.44ZM56.5524 74.3C57.1124 73.76 57.7157 73.3567 58.3624 73.09C59.009 72.8233 59.7257 72.69 60.5124 72.69C61.079 72.69 61.5824 72.7833 62.0224 72.97C62.4624 73.1567 62.8324 73.4167 63.1324 73.75C63.4324 74.0833 63.659 74.4867 63.8124 74.96C63.9657 75.4333 64.0424 75.9533 64.0424 76.52V83H63.2524C63.079 83 62.9457 82.9733 62.8524 82.92C62.759 82.86 62.6857 82.7467 62.6324 82.58L62.4324 81.62C62.1657 81.8667 61.9057 82.0867 61.6524 82.28C61.399 82.4667 61.1324 82.6267 60.8524 82.76C60.5724 82.8867 60.2724 82.9833 59.9524 83.05C59.639 83.1233 59.289 83.16 58.9024 83.16C58.509 83.16 58.139 83.1067 57.7924 83C57.4457 82.8867 57.1424 82.72 56.8824 82.5C56.629 82.28 56.4257 82.0033 56.2724 81.67C56.1257 81.33 56.0524 80.93 56.0524 80.47C56.0524 80.07 56.1624 79.6867 56.3824 79.32C56.6024 78.9467 56.959 78.6167 57.4524 78.33C57.9457 78.0433 58.589 77.81 59.3824 77.63C60.1757 77.4433 61.149 77.3367 62.3024 77.31V76.52C62.3024 75.7333 62.1324 75.14 61.7924 74.74C61.4524 74.3333 60.9557 74.13 60.3024 74.13C59.8624 74.13 59.4924 74.1867 59.1924 74.3C58.899 74.4067 58.6424 74.53 58.4224 74.67C58.209 74.8033 58.0224 74.9267 57.8624 75.04C57.709 75.1467 57.5557 75.2 57.4024 75.2C57.2824 75.2 57.179 75.17 57.0924 75.11C57.0057 75.0433 56.9324 74.9633 56.8724 74.87L56.5524 74.3ZM74.6538 74.54C74.5738 74.6867 74.4504 74.76 74.2838 74.76C74.1838 74.76 74.0704 74.7233 73.9438 74.65C73.8171 74.5767 73.6604 74.4967 73.4738 74.41C73.2938 74.3167 73.0771 74.2333 72.8238 74.16C72.5704 74.08 72.2704 74.04 71.9238 74.04C71.6238 74.04 71.3538 74.08 71.1138 74.16C70.8738 74.2333 70.6671 74.3367 70.4938 74.47C70.3271 74.6033 70.1971 74.76 70.1038 74.94C70.0171 75.1133 69.9738 75.3033 69.9738 75.51C69.9738 75.77 70.0471 75.9867 70.1938 76.16C70.3471 76.3333 70.5471 76.4833 70.7938 76.61C71.0404 76.7367 71.3204 76.85 71.6338 76.95C71.9471 77.0433 72.2671 77.1467 72.5938 77.26C72.9271 77.3667 73.2504 77.4867 73.5638 77.62C73.8771 77.7533 74.1571 77.92 74.4038 78.12C74.6504 78.32 74.8471 78.5667 74.9938 78.86C75.1471 79.1467 75.2238 79.4933 75.2238 79.9C75.2238 80.3667 75.1404 80.8 74.9738 81.2C74.8071 81.5933 74.5604 81.9367 74.2338 82.23C73.9071 82.5167 73.5071 82.7433 73.0338 82.91C72.5604 83.0767 72.0138 83.16 71.3938 83.16C70.6871 83.16 70.0471 83.0467 69.4738 82.82C68.9004 82.5867 68.4138 82.29 68.0138 81.93L68.4338 81.25C68.4871 81.1633 68.5504 81.0967 68.6238 81.05C68.6971 81.0033 68.7904 80.98 68.9038 80.98C69.0238 80.98 69.1504 81.0267 69.2838 81.12C69.4171 81.2133 69.5771 81.3167 69.7638 81.43C69.9571 81.5433 70.1904 81.6467 70.4638 81.74C70.7371 81.8333 71.0771 81.88 71.4838 81.88C71.8304 81.88 72.1338 81.8367 72.3938 81.75C72.6538 81.6567 72.8704 81.5333 73.0438 81.38C73.2171 81.2267 73.3438 81.05 73.4238 80.85C73.5104 80.65 73.5538 80.4367 73.5538 80.21C73.5538 79.93 73.4771 79.7 73.3238 79.52C73.1771 79.3333 72.9804 79.1767 72.7338 79.05C72.4871 78.9167 72.2038 78.8033 71.8838 78.71C71.5704 78.61 71.2471 78.5067 70.9138 78.4C70.5871 78.2933 70.2638 78.1733 69.9438 78.04C69.6304 77.9 69.3504 77.7267 69.1038 77.52C68.8571 77.3133 68.6571 77.06 68.5038 76.76C68.3571 76.4533 68.2838 76.0833 68.2838 75.65C68.2838 75.2633 68.3638 74.8933 68.5238 74.54C68.6838 74.18 68.9171 73.8667 69.2238 73.6C69.5304 73.3267 69.9071 73.11 70.3538 72.95C70.8004 72.79 71.3104 72.71 71.8838 72.71C72.5504 72.71 73.1471 72.8167 73.6738 73.03C74.2071 73.2367 74.6671 73.5233 75.0538 73.89L74.6538 74.54ZM86.1861 76.83C86.1861 76.4167 86.1261 76.04 86.0061 75.7C85.8928 75.3533 85.7228 75.0567 85.4961 74.81C85.2761 74.5567 85.0061 74.3633 84.6861 74.23C84.3661 74.09 84.0028 74.02 83.5961 74.02C82.7428 74.02 82.0661 74.27 81.5661 74.77C81.0728 75.2633 80.7661 75.95 80.6461 76.83H86.1861ZM87.6261 81.58C87.4061 81.8467 87.1428 82.08 86.8361 82.28C86.5294 82.4733 86.1994 82.6333 85.8461 82.76C85.4994 82.8867 85.1394 82.98 84.7661 83.04C84.3928 83.1067 84.0228 83.14 83.6561 83.14C82.9561 83.14 82.3094 83.0233 81.7161 82.79C81.1294 82.55 80.6194 82.2033 80.1861 81.75C79.7594 81.29 79.4261 80.7233 79.1861 80.05C78.9461 79.3767 78.8261 78.6033 78.8261 77.73C78.8261 77.0233 78.9328 76.3633 79.1461 75.75C79.3661 75.1367 79.6794 74.6067 80.0861 74.16C80.4928 73.7067 80.9894 73.3533 81.5761 73.1C82.1628 72.84 82.8228 72.71 83.5561 72.71C84.1628 72.71 84.7228 72.8133 85.2361 73.02C85.7561 73.22 86.2028 73.5133 86.5761 73.9C86.9561 74.28 87.2528 74.7533 87.4661 75.32C87.6794 75.88 87.7861 76.52 87.7861 77.24C87.7861 77.52 87.7561 77.7067 87.6961 77.8C87.6361 77.8933 87.5228 77.94 87.3561 77.94H80.5861C80.6061 78.58 80.6928 79.1367 80.8461 79.61C81.0061 80.0833 81.2261 80.48 81.5061 80.8C81.7861 81.1133 82.1194 81.35 82.5061 81.51C82.8928 81.6633 83.3261 81.74 83.8061 81.74C84.2528 81.74 84.6361 81.69 84.9561 81.59C85.2828 81.4833 85.5628 81.37 85.7961 81.25C86.0294 81.13 86.2228 81.02 86.3761 80.92C86.5361 80.8133 86.6728 80.76 86.7861 80.76C86.9328 80.76 87.0461 80.8167 87.1261 80.93L87.6261 81.58ZM117.806 68.67L113.336 83H111.596L107.966 72.07C107.933 71.9633 107.9 71.85 107.866 71.73C107.84 71.61 107.81 71.4833 107.776 71.35C107.743 71.4833 107.71 71.61 107.676 71.73C107.643 71.85 107.61 71.9633 107.576 72.07L103.926 83H102.186L97.7163 68.67H99.3263C99.4996 68.67 99.6429 68.7133 99.7563 68.8C99.8763 68.8867 99.9529 68.9967 99.9863 69.13L102.946 79.09C102.993 79.27 103.036 79.4633 103.076 79.67C103.123 79.8767 103.166 80.0967 103.206 80.33C103.253 80.0967 103.3 79.8767 103.346 79.67C103.4 79.4567 103.456 79.2633 103.516 79.09L106.886 69.13C106.926 69.0167 107.003 68.9133 107.116 68.82C107.236 68.72 107.38 68.67 107.546 68.67H108.106C108.28 68.67 108.42 68.7133 108.526 68.8C108.633 68.8867 108.713 68.9967 108.766 69.13L112.126 79.09C112.186 79.2633 112.24 79.45 112.286 79.65C112.34 79.85 112.39 80.06 112.436 80.28C112.47 80.06 112.506 79.85 112.546 79.65C112.586 79.45 112.63 79.2633 112.676 79.09L115.646 69.13C115.68 69.01 115.753 68.9033 115.866 68.81C115.986 68.7167 116.13 68.67 116.296 68.67H117.806ZM125.877 78.44C125.057 78.4667 124.357 78.5333 123.777 78.64C123.203 78.74 122.733 78.8733 122.367 79.04C122.007 79.2067 121.743 79.4033 121.577 79.63C121.417 79.8567 121.337 80.11 121.337 80.39C121.337 80.6567 121.38 80.8867 121.467 81.08C121.553 81.2733 121.67 81.4333 121.817 81.56C121.97 81.68 122.147 81.77 122.347 81.83C122.553 81.8833 122.773 81.91 123.007 81.91C123.32 81.91 123.607 81.88 123.867 81.82C124.127 81.7533 124.37 81.66 124.597 81.54C124.83 81.42 125.05 81.2767 125.257 81.11C125.47 80.9433 125.677 80.7533 125.877 80.54V78.44ZM120.127 74.3C120.687 73.76 121.29 73.3567 121.937 73.09C122.583 72.8233 123.3 72.69 124.087 72.69C124.653 72.69 125.157 72.7833 125.597 72.97C126.037 73.1567 126.407 73.4167 126.707 73.75C127.007 74.0833 127.233 74.4867 127.387 74.96C127.54 75.4333 127.617 75.9533 127.617 76.52V83H126.827C126.653 83 126.52 82.9733 126.427 82.92C126.333 82.86 126.26 82.7467 126.207 82.58L126.007 81.62C125.74 81.8667 125.48 82.0867 125.227 82.28C124.973 82.4667 124.707 82.6267 124.427 82.76C124.147 82.8867 123.847 82.9833 123.527 83.05C123.213 83.1233 122.863 83.16 122.477 83.16C122.083 83.16 121.713 83.1067 121.367 83C121.02 82.8867 120.717 82.72 120.457 82.5C120.203 82.28 120 82.0033 119.847 81.67C119.7 81.33 119.627 80.93 119.627 80.47C119.627 80.07 119.737 79.6867 119.957 79.32C120.177 78.9467 120.533 78.6167 121.027 78.33C121.52 78.0433 122.163 77.81 122.957 77.63C123.75 77.4433 124.723 77.3367 125.877 77.31V76.52C125.877 75.7333 125.707 75.14 125.367 74.74C125.027 74.3333 124.53 74.13 123.877 74.13C123.437 74.13 123.067 74.1867 122.767 74.3C122.473 74.4067 122.217 74.53 121.997 74.67C121.783 74.8033 121.597 74.9267 121.437 75.04C121.283 75.1467 121.13 75.2 120.977 75.2C120.857 75.2 120.753 75.17 120.667 75.11C120.58 75.0433 120.507 74.9633 120.447 74.87L120.127 74.3ZM134.208 72.87V83H132.428V72.87H134.208ZM134.588 69.69C134.588 69.8633 134.551 70.0267 134.478 70.18C134.411 70.3267 134.318 70.46 134.198 70.58C134.085 70.6933 133.948 70.7833 133.788 70.85C133.635 70.9167 133.471 70.95 133.298 70.95C133.125 70.95 132.961 70.9167 132.808 70.85C132.661 70.7833 132.531 70.6933 132.418 70.58C132.305 70.46 132.215 70.3267 132.148 70.18C132.081 70.0267 132.048 69.8633 132.048 69.69C132.048 69.5167 132.081 69.3533 132.148 69.2C132.215 69.04 132.305 68.9033 132.418 68.79C132.531 68.67 132.661 68.5767 132.808 68.51C132.961 68.4433 133.125 68.41 133.298 68.41C133.471 68.41 133.635 68.4433 133.788 68.51C133.948 68.5767 134.085 68.67 134.198 68.79C134.318 68.9033 134.411 69.04 134.478 69.2C134.551 69.3533 134.588 69.5167 134.588 69.69ZM142.243 83.16C141.443 83.16 140.826 82.9367 140.393 82.49C139.966 82.0433 139.753 81.4 139.753 80.56V74.36H138.533C138.426 74.36 138.336 74.33 138.263 74.27C138.189 74.2033 138.153 74.1033 138.153 73.97V73.26L139.813 73.05L140.223 69.92C140.243 69.82 140.286 69.74 140.353 69.68C140.426 69.6133 140.519 69.58 140.633 69.58H141.533V73.07H144.463V74.36H141.533V80.44C141.533 80.8667 141.636 81.1833 141.843 81.39C142.049 81.5967 142.316 81.7 142.643 81.7C142.829 81.7 142.989 81.6767 143.123 81.63C143.263 81.5767 143.383 81.52 143.483 81.46C143.583 81.4 143.666 81.3467 143.733 81.3C143.806 81.2467 143.869 81.22 143.923 81.22C144.016 81.22 144.099 81.2767 144.173 81.39L144.693 82.24C144.386 82.5267 144.016 82.7533 143.583 82.92C143.149 83.08 142.703 83.16 142.243 83.16ZM148.001 81.9C148.001 81.7267 148.031 81.5633 148.091 81.41C148.157 81.2567 148.244 81.1233 148.351 81.01C148.464 80.8967 148.597 80.8067 148.751 80.74C148.904 80.6733 149.067 80.64 149.241 80.64C149.414 80.64 149.577 80.6733 149.731 80.74C149.884 80.8067 150.017 80.8967 150.131 81.01C150.244 81.1233 150.334 81.2567 150.401 81.41C150.467 81.5633 150.501 81.7267 150.501 81.9C150.501 82.08 150.467 82.2467 150.401 82.4C150.334 82.5467 150.244 82.6767 150.131 82.79C150.017 82.9033 149.884 82.99 149.731 83.05C149.577 83.1167 149.414 83.15 149.241 83.15C149.067 83.15 148.904 83.1167 148.751 83.05C148.597 82.99 148.464 82.9033 148.351 82.79C148.244 82.6767 148.157 82.5467 148.091 82.4C148.031 82.2467 148.001 82.08 148.001 81.9ZM154.727 81.9C154.727 81.7267 154.757 81.5633 154.817 81.41C154.884 81.2567 154.971 81.1233 155.077 81.01C155.191 80.8967 155.324 80.8067 155.477 80.74C155.631 80.6733 155.794 80.64 155.967 80.64C156.141 80.64 156.304 80.6733 156.457 80.74C156.611 80.8067 156.744 80.8967 156.857 81.01C156.971 81.1233 157.061 81.2567 157.127 81.41C157.194 81.5633 157.227 81.7267 157.227 81.9C157.227 82.08 157.194 82.2467 157.127 82.4C157.061 82.5467 156.971 82.6767 156.857 82.79C156.744 82.9033 156.611 82.99 156.457 83.05C156.304 83.1167 156.141 83.15 155.967 83.15C155.794 83.15 155.631 83.1167 155.477 83.05C155.324 82.99 155.191 82.9033 155.077 82.79C154.971 82.6767 154.884 82.5467 154.817 82.4C154.757 82.2467 154.727 82.08 154.727 81.9Z" fill="#D9D9D9"/>
<path d="M60.3892 100.68L58.1392 94.85C58.0726 94.6767 58.0026 94.4767 57.9292 94.25C57.8559 94.0167 57.7859 93.77 57.7192 93.51C57.5792 94.05 57.4359 94.5 57.2892 94.86L55.0392 100.68H60.3892ZM64.4292 106H62.9292C62.7559 106 62.6159 105.957 62.5092 105.87C62.4026 105.783 62.3226 105.673 62.2692 105.54L60.9292 102.08H54.4992L53.1592 105.54C53.1192 105.66 53.0426 105.767 52.9292 105.86C52.8159 105.953 52.6759 106 52.5092 106H51.0092L56.7392 91.67H58.6992L64.4292 106ZM75.7736 95.87L71.6436 106H70.0436L65.9136 95.87H67.3636C67.5103 95.87 67.6303 95.9067 67.7236 95.98C67.8169 96.0533 67.8803 96.14 67.9136 96.24L70.4836 102.76C70.5636 103.007 70.6336 103.247 70.6936 103.48C70.7536 103.713 70.8103 103.947 70.8636 104.18C70.9169 103.947 70.9736 103.713 71.0336 103.48C71.0936 103.247 71.1669 103.007 71.2536 102.76L73.8536 96.24C73.8936 96.1333 73.9603 96.0467 74.0536 95.98C74.1469 95.9067 74.2569 95.87 74.3836 95.87H75.7736ZM84.6813 101.44C83.8613 101.467 83.1613 101.533 82.5813 101.64C82.0079 101.74 81.5379 101.873 81.1713 102.04C80.8113 102.207 80.5479 102.403 80.3813 102.63C80.2213 102.857 80.1413 103.11 80.1413 103.39C80.1413 103.657 80.1846 103.887 80.2713 104.08C80.3579 104.273 80.4746 104.433 80.6213 104.56C80.7746 104.68 80.9513 104.77 81.1513 104.83C81.3579 104.883 81.5779 104.91 81.8113 104.91C82.1246 104.91 82.4113 104.88 82.6713 104.82C82.9313 104.753 83.1746 104.66 83.4013 104.54C83.6346 104.42 83.8546 104.277 84.0613 104.11C84.2746 103.943 84.4813 103.753 84.6813 103.54V101.44ZM78.9313 97.3C79.4913 96.76 80.0946 96.3567 80.7413 96.09C81.3879 95.8233 82.1046 95.69 82.8913 95.69C83.4579 95.69 83.9613 95.7833 84.4013 95.97C84.8413 96.1567 85.2113 96.4167 85.5113 96.75C85.8113 97.0833 86.0379 97.4867 86.1913 97.96C86.3446 98.4333 86.4213 98.9533 86.4213 99.52V106H85.6313C85.4579 106 85.3246 105.973 85.2313 105.92C85.1379 105.86 85.0646 105.747 85.0113 105.58L84.8113 104.62C84.5446 104.867 84.2846 105.087 84.0313 105.28C83.7779 105.467 83.5113 105.627 83.2313 105.76C82.9513 105.887 82.6513 105.983 82.3313 106.05C82.0179 106.123 81.6679 106.16 81.2813 106.16C80.8879 106.16 80.5179 106.107 80.1713 106C79.8246 105.887 79.5213 105.72 79.2613 105.5C79.0079 105.28 78.8046 105.003 78.6513 104.67C78.5046 104.33 78.4313 103.93 78.4313 103.47C78.4313 103.07 78.5413 102.687 78.7613 102.32C78.9813 101.947 79.3379 101.617 79.8313 101.33C80.3246 101.043 80.9679 100.81 81.7613 100.63C82.5546 100.443 83.5279 100.337 84.6813 100.31V99.52C84.6813 98.7333 84.5113 98.14 84.1713 97.74C83.8313 97.3333 83.3346 97.13 82.6813 97.13C82.2413 97.13 81.8713 97.1867 81.5713 97.3C81.2779 97.4067 81.0213 97.53 80.8013 97.67C80.5879 97.8033 80.4013 97.9267 80.2413 98.04C80.0879 98.1467 79.9346 98.2 79.7813 98.2C79.6613 98.2 79.5579 98.17 79.4713 98.11C79.3846 98.0433 79.3113 97.9633 79.2513 97.87L78.9313 97.3ZM94.1059 106.16C93.3059 106.16 92.6893 105.937 92.2559 105.49C91.8293 105.043 91.6159 104.4 91.6159 103.56V97.36H90.3959C90.2893 97.36 90.1993 97.33 90.1259 97.27C90.0526 97.2033 90.0159 97.1033 90.0159 96.97V96.26L91.6759 96.05L92.0859 92.92C92.1059 92.82 92.1493 92.74 92.2159 92.68C92.2893 92.6133 92.3826 92.58 92.4959 92.58H93.3959V96.07H96.3259V97.36H93.3959V103.44C93.3959 103.867 93.4993 104.183 93.7059 104.39C93.9126 104.597 94.1793 104.7 94.5059 104.7C94.6926 104.7 94.8526 104.677 94.9859 104.63C95.1259 104.577 95.2459 104.52 95.3459 104.46C95.4459 104.4 95.5293 104.347 95.5959 104.3C95.6693 104.247 95.7326 104.22 95.7859 104.22C95.8793 104.22 95.9626 104.277 96.0359 104.39L96.5559 105.24C96.2493 105.527 95.8793 105.753 95.4459 105.92C95.0126 106.08 94.5659 106.16 94.1059 106.16ZM105.654 101.44C104.834 101.467 104.134 101.533 103.554 101.64C102.981 101.74 102.511 101.873 102.144 102.04C101.784 102.207 101.521 102.403 101.354 102.63C101.194 102.857 101.114 103.11 101.114 103.39C101.114 103.657 101.157 103.887 101.244 104.08C101.331 104.273 101.447 104.433 101.594 104.56C101.747 104.68 101.924 104.77 102.124 104.83C102.331 104.883 102.551 104.91 102.784 104.91C103.097 104.91 103.384 104.88 103.644 104.82C103.904 104.753 104.147 104.66 104.374 104.54C104.607 104.42 104.827 104.277 105.034 104.11C105.247 103.943 105.454 103.753 105.654 103.54V101.44ZM99.9039 97.3C100.464 96.76 101.067 96.3567 101.714 96.09C102.361 95.8233 103.077 95.69 103.864 95.69C104.431 95.69 104.934 95.7833 105.374 95.97C105.814 96.1567 106.184 96.4167 106.484 96.75C106.784 97.0833 107.011 97.4867 107.164 97.96C107.317 98.4333 107.394 98.9533 107.394 99.52V106H106.604C106.431 106 106.297 105.973 106.204 105.92C106.111 105.86 106.037 105.747 105.984 105.58L105.784 104.62C105.517 104.867 105.257 105.087 105.004 105.28C104.751 105.467 104.484 105.627 104.204 105.76C103.924 105.887 103.624 105.983 103.304 106.05C102.991 106.123 102.641 106.16 102.254 106.16C101.861 106.16 101.491 106.107 101.144 106C100.797 105.887 100.494 105.72 100.234 105.5C99.9806 105.28 99.7772 105.003 99.6239 104.67C99.4772 104.33 99.4039 103.93 99.4039 103.47C99.4039 103.07 99.5139 102.687 99.7339 102.32C99.9539 101.947 100.311 101.617 100.804 101.33C101.297 101.043 101.941 100.81 102.734 100.63C103.527 100.443 104.501 100.337 105.654 100.31V99.52C105.654 98.7333 105.484 98.14 105.144 97.74C104.804 97.3333 104.307 97.13 103.654 97.13C103.214 97.13 102.844 97.1867 102.544 97.3C102.251 97.4067 101.994 97.53 101.774 97.67C101.561 97.8033 101.374 97.9267 101.214 98.04C101.061 98.1467 100.907 98.2 100.754 98.2C100.634 98.2 100.531 98.17 100.444 98.11C100.357 98.0433 100.284 97.9633 100.224 97.87L99.9039 97.3ZM113.795 97.9C114.115 97.2067 114.509 96.6667 114.975 96.28C115.442 95.8867 116.012 95.69 116.685 95.69C116.899 95.69 117.102 95.7133 117.295 95.76C117.495 95.8067 117.672 95.88 117.825 95.98L117.695 97.31C117.655 97.4767 117.555 97.56 117.395 97.56C117.302 97.56 117.165 97.54 116.985 97.5C116.805 97.46 116.602 97.44 116.375 97.44C116.055 97.44 115.769 97.4867 115.515 97.58C115.269 97.6733 115.045 97.8133 114.845 98C114.652 98.18 114.475 98.4067 114.315 98.68C114.162 98.9467 114.022 99.2533 113.895 99.6V106H112.105V95.87H113.125C113.319 95.87 113.452 95.9067 113.525 95.98C113.599 96.0533 113.649 96.18 113.675 96.36L113.795 97.9ZM55.0206 128.37V130H46.8906V115.67H48.8206V128.37H55.0206ZM62.2913 119.71C63.0313 119.71 63.698 119.833 64.2913 120.08C64.8847 120.327 65.3913 120.677 65.8113 121.13C66.2313 121.583 66.5513 122.133 66.7713 122.78C66.998 123.42 67.1113 124.137 67.1113 124.93C67.1113 125.73 66.998 126.45 66.7713 127.09C66.5513 127.73 66.2313 128.277 65.8113 128.73C65.3913 129.183 64.8847 129.533 64.2913 129.78C63.698 130.02 63.0313 130.14 62.2913 130.14C61.5447 130.14 60.8713 130.02 60.2713 129.78C59.678 129.533 59.1713 129.183 58.7513 128.73C58.3313 128.277 58.008 127.73 57.7813 127.09C57.5613 126.45 57.4513 125.73 57.4513 124.93C57.4513 124.137 57.5613 123.42 57.7813 122.78C58.008 122.133 58.3313 121.583 58.7513 121.13C59.1713 120.677 59.678 120.327 60.2713 120.08C60.8713 119.833 61.5447 119.71 62.2913 119.71ZM62.2913 128.75C63.2913 128.75 64.038 128.417 64.5313 127.75C65.0247 127.077 65.2713 126.14 65.2713 124.94C65.2713 123.733 65.0247 122.793 64.5313 122.12C64.038 121.447 63.2913 121.11 62.2913 121.11C61.7847 121.11 61.3413 121.197 60.9613 121.37C60.588 121.543 60.2747 121.793 60.0213 122.12C59.7747 122.447 59.588 122.85 59.4613 123.33C59.3413 123.803 59.2813 124.34 59.2813 124.94C59.2813 126.14 59.528 127.077 60.0213 127.75C60.5213 128.417 61.278 128.75 62.2913 128.75ZM76.859 125.44C76.039 125.467 75.339 125.533 74.759 125.64C74.1857 125.74 73.7157 125.873 73.349 126.04C72.989 126.207 72.7257 126.403 72.559 126.63C72.399 126.857 72.319 127.11 72.319 127.39C72.319 127.657 72.3623 127.887 72.449 128.08C72.5357 128.273 72.6523 128.433 72.799 128.56C72.9523 128.68 73.129 128.77 73.329 128.83C73.5357 128.883 73.7557 128.91 73.989 128.91C74.3023 128.91 74.589 128.88 74.849 128.82C75.109 128.753 75.3523 128.66 75.579 128.54C75.8123 128.42 76.0323 128.277 76.239 128.11C76.4523 127.943 76.659 127.753 76.859 127.54V125.44ZM71.109 121.3C71.669 120.76 72.2723 120.357 72.919 120.09C73.5657 119.823 74.2823 119.69 75.069 119.69C75.6357 119.69 76.139 119.783 76.579 119.97C77.019 120.157 77.389 120.417 77.689 120.75C77.989 121.083 78.2157 121.487 78.369 121.96C78.5223 122.433 78.599 122.953 78.599 123.52V130H77.809C77.6357 130 77.5023 129.973 77.409 129.92C77.3157 129.86 77.2423 129.747 77.189 129.58L76.989 128.62C76.7223 128.867 76.4623 129.087 76.209 129.28C75.9557 129.467 75.689 129.627 75.409 129.76C75.129 129.887 74.829 129.983 74.509 130.05C74.1957 130.123 73.8457 130.16 73.459 130.16C73.0657 130.16 72.6957 130.107 72.349 130C72.0023 129.887 71.699 129.72 71.439 129.5C71.1857 129.28 70.9823 129.003 70.829 128.67C70.6823 128.33 70.609 127.93 70.609 127.47C70.609 127.07 70.719 126.687 70.939 126.32C71.159 125.947 71.5157 125.617 72.009 125.33C72.5023 125.043 73.1457 124.81 73.939 124.63C74.7323 124.443 75.7057 124.337 76.859 124.31V123.52C76.859 122.733 76.689 122.14 76.349 121.74C76.009 121.333 75.5123 121.13 74.859 121.13C74.419 121.13 74.049 121.187 73.749 121.3C73.4557 121.407 73.199 121.53 72.979 121.67C72.7657 121.803 72.579 121.927 72.419 122.04C72.2657 122.147 72.1123 122.2 71.959 122.2C71.839 122.2 71.7357 122.17 71.649 122.11C71.5623 122.043 71.489 121.963 71.429 121.87L71.109 121.3ZM89.9104 122.28C89.5771 121.833 89.2171 121.523 88.8304 121.35C88.4437 121.17 88.0104 121.08 87.5304 121.08C86.5904 121.08 85.8671 121.417 85.3604 122.09C84.8537 122.763 84.6004 123.723 84.6004 124.97C84.6004 125.63 84.6571 126.197 84.7704 126.67C84.8837 127.137 85.0504 127.523 85.2704 127.83C85.4904 128.13 85.7604 128.35 86.0804 128.49C86.4004 128.63 86.7637 128.7 87.1704 128.7C87.7571 128.7 88.2671 128.567 88.7004 128.3C89.1404 128.033 89.5437 127.657 89.9104 127.17V122.28ZM91.6904 115.27V130H90.6304C90.3771 130 90.2171 129.877 90.1504 129.63L89.9904 128.4C89.5571 128.92 89.0637 129.34 88.5104 129.66C87.9571 129.98 87.3171 130.14 86.5904 130.14C86.0104 130.14 85.4837 130.03 85.0104 129.81C84.5371 129.583 84.1337 129.253 83.8004 128.82C83.4671 128.387 83.2104 127.847 83.0304 127.2C82.8504 126.553 82.7604 125.81 82.7604 124.97C82.7604 124.223 82.8604 123.53 83.0604 122.89C83.2604 122.243 83.5471 121.683 83.9204 121.21C84.2937 120.737 84.7504 120.367 85.2904 120.1C85.8371 119.827 86.4504 119.69 87.1304 119.69C87.7504 119.69 88.2804 119.797 88.7204 120.01C89.1671 120.217 89.5637 120.507 89.9104 120.88V115.27H91.6904ZM98.3818 119.87V130H96.6018V119.87H98.3818ZM98.7618 116.69C98.7618 116.863 98.7251 117.027 98.6518 117.18C98.5851 117.327 98.4918 117.46 98.3718 117.58C98.2585 117.693 98.1218 117.783 97.9618 117.85C97.8085 117.917 97.6451 117.95 97.4718 117.95C97.2985 117.95 97.1351 117.917 96.9818 117.85C96.8351 117.783 96.7051 117.693 96.5918 117.58C96.4785 117.46 96.3885 117.327 96.3218 117.18C96.2551 117.027 96.2218 116.863 96.2218 116.69C96.2218 116.517 96.2551 116.353 96.3218 116.2C96.3885 116.04 96.4785 115.903 96.5918 115.79C96.7051 115.67 96.8351 115.577 96.9818 115.51C97.1351 115.443 97.2985 115.41 97.4718 115.41C97.6451 115.41 97.8085 115.443 97.9618 115.51C98.1218 115.577 98.2585 115.67 98.3718 115.79C98.4918 115.903 98.5851 116.04 98.6518 116.2C98.7251 116.353 98.7618 116.517 98.7618 116.69ZM104.986 121.34C105.206 121.093 105.44 120.87 105.686 120.67C105.933 120.47 106.193 120.3 106.466 120.16C106.746 120.013 107.04 119.903 107.346 119.83C107.66 119.75 107.996 119.71 108.356 119.71C108.91 119.71 109.396 119.803 109.816 119.99C110.243 120.17 110.596 120.43 110.876 120.77C111.163 121.103 111.38 121.507 111.526 121.98C111.673 122.453 111.746 122.977 111.746 123.55V130H109.956V123.55C109.956 122.783 109.78 122.19 109.426 121.77C109.08 121.343 108.55 121.13 107.836 121.13C107.31 121.13 106.816 121.257 106.356 121.51C105.903 121.763 105.483 122.107 105.096 122.54V130H103.306V119.87H104.376C104.63 119.87 104.786 119.993 104.846 120.24L104.986 121.34ZM119.989 125.05C120.349 125.05 120.666 125 120.939 124.9C121.212 124.8 121.442 124.66 121.629 124.48C121.816 124.3 121.956 124.087 122.049 123.84C122.142 123.587 122.189 123.31 122.189 123.01C122.189 122.39 121.999 121.897 121.619 121.53C121.246 121.163 120.702 120.98 119.989 120.98C119.269 120.98 118.719 121.163 118.339 121.53C117.966 121.897 117.779 122.39 117.779 123.01C117.779 123.31 117.826 123.587 117.919 123.84C118.019 124.087 118.162 124.3 118.349 124.48C118.536 124.66 118.766 124.8 119.039 124.9C119.312 125 119.629 125.05 119.989 125.05ZM123.199 130.55C123.199 130.303 123.129 130.103 122.989 129.95C122.849 129.797 122.659 129.677 122.419 129.59C122.186 129.503 121.912 129.443 121.599 129.41C121.286 129.37 120.952 129.34 120.599 129.32C120.252 129.3 119.899 129.28 119.539 129.26C119.179 129.24 118.832 129.207 118.499 129.16C118.126 129.333 117.819 129.553 117.579 129.82C117.346 130.08 117.229 130.387 117.229 130.74C117.229 130.967 117.286 131.177 117.399 131.37C117.519 131.57 117.699 131.74 117.939 131.88C118.179 132.027 118.479 132.14 118.839 132.22C119.206 132.307 119.636 132.35 120.129 132.35C120.609 132.35 121.039 132.307 121.419 132.22C121.799 132.133 122.119 132.01 122.379 131.85C122.646 131.69 122.849 131.5 122.989 131.28C123.129 131.06 123.199 130.817 123.199 130.55ZM125.009 120.27V120.93C125.009 121.15 124.869 121.29 124.589 121.35L123.439 121.5C123.666 121.94 123.779 122.427 123.779 122.96C123.779 123.453 123.682 123.903 123.489 124.31C123.302 124.71 123.042 125.053 122.709 125.34C122.376 125.627 121.976 125.847 121.509 126C121.042 126.153 120.536 126.23 119.989 126.23C119.516 126.23 119.069 126.173 118.649 126.06C118.436 126.193 118.272 126.337 118.159 126.49C118.046 126.637 117.989 126.787 117.989 126.94C117.989 127.18 118.086 127.363 118.279 127.49C118.479 127.61 118.739 127.697 119.059 127.75C119.379 127.803 119.742 127.837 120.149 127.85C120.562 127.863 120.982 127.887 121.409 127.92C121.842 127.947 122.262 127.997 122.669 128.07C123.082 128.143 123.449 128.263 123.769 128.43C124.089 128.597 124.346 128.827 124.539 129.12C124.739 129.413 124.839 129.793 124.839 130.26C124.839 130.693 124.729 131.113 124.509 131.52C124.296 131.927 123.986 132.287 123.579 132.6C123.172 132.92 122.672 133.173 122.079 133.36C121.492 133.553 120.829 133.65 120.089 133.65C119.349 133.65 118.702 133.577 118.149 133.43C117.596 133.283 117.136 133.087 116.769 132.84C116.402 132.593 116.126 132.307 115.939 131.98C115.759 131.66 115.669 131.323 115.669 130.97C115.669 130.47 115.826 130.047 116.139 129.7C116.452 129.353 116.882 129.077 117.429 128.87C117.129 128.737 116.889 128.56 116.709 128.34C116.536 128.113 116.449 127.81 116.449 127.43C116.449 127.283 116.476 127.133 116.529 126.98C116.582 126.82 116.662 126.663 116.769 126.51C116.882 126.35 117.019 126.2 117.179 126.06C117.339 125.92 117.526 125.797 117.739 125.69C117.239 125.41 116.849 125.04 116.569 124.58C116.289 124.113 116.149 123.573 116.149 122.96C116.149 122.467 116.242 122.02 116.429 121.62C116.622 121.213 116.889 120.87 117.229 120.59C117.569 120.303 117.972 120.083 118.439 119.93C118.912 119.777 119.429 119.7 119.989 119.7C120.429 119.7 120.839 119.75 121.219 119.85C121.599 119.943 121.946 120.083 122.259 120.27H125.009Z" fill="#D9D9D9"/>
</svg>
